<?xml version="1.0" standalone="no"?>
<!DOCTYPE svg PUBLIC "-//W3C//DTD SVG 20010904//EN"
 "http://www.w3.org/TR/2001/REC-SVG-20010904/DTD/svg10.dtd">
<svg version="1.0" xmlns="http://www.w3.org/2000/svg"
 width="815.000000pt" height="980.000000pt" viewBox="0 0 815.000000 980.000000"
 preserveAspectRatio="xMidYMid meet">

<rect width="100%" height="100%" fill="hsla( 225deg ,15%,14%,1)" />

<g transform="translate(0.000000,980.000000) scale(0.100000,-0.100000)"
fill="rgb(233, 71, 71)" stroke="none">
<path d="M4146 9780 c-131 -65 -250 -234 -304 -430 -36 -130 -45 -229 -39
-428 8 -279 57 -532 167 -857 27 -82 50 -153 50 -157 0 -3 -30 2 -67 13 -96
27 -346 75 -488 93 -201 26 -367 35 -662 36 -238 2 -281 4 -276 16 5 13 -9 19
-32 14 -5 -1 -7 2 -3 6 22 21 -169 132 -298 174 -101 32 -219 50 -335 50 -92
0 -200 -10 -195 -19 2 -3 -12 -6 -31 -5 -34 1 -69 -6 -206 -41 -49 -13 -65
-21 -55 -27 9 -7 8 -8 -5 -4 -11 3 -60 -9 -112 -29 -124 -46 -145 -56 -139
-66 3 -5 -1 -6 -9 -3 -18 7 -80 -30 -69 -41 4 -5 1 -5 -6 -1 -16 9 -74 -13
-67 -24 3 -5 0 -12 -6 -16 -8 -4 -9 -3 -5 4 11 18 5 16 -105 -46 -57 -32 -103
-64 -102 -70 2 -6 -3 -9 -10 -6 -19 7 -140 -84 -131 -98 4 -7 3 -8 -4 -4 -15
9 -54 -12 -47 -25 4 -5 0 -9 -7 -9 -15 0 -84 -70 -81 -81 1 -4 -5 -13 -15 -21
-15 -12 -16 -11 -3 5 7 9 9 17 4 17 -13 0 -58 -63 -55 -75 2 -5 0 -7 -4 -2 -4
4 -16 0 -26 -10 -20 -18 -25 -38 -6 -27 7 4 8 3 4 -5 -4 -6 -11 -9 -16 -6 -11
7 -62 -63 -55 -75 4 -6 1 -9 -6 -8 -7 2 -17 -6 -23 -17 -6 -11 -21 -34 -33
-51 -12 -17 -20 -34 -16 -38 3 -3 2 -6 -4 -6 -8 0 -33 -40 -38 -60 0 -3 -7
-15 -14 -28 -7 -13 -10 -30 -7 -38 3 -8 0 -13 -7 -11 -7 1 -12 -5 -12 -13 0
-8 -3 -17 -7 -20 -12 -9 -60 -164 -61 -197 -1 -17 -4 -30 -7 -28 -8 5 -38
-188 -51 -327 -8 -92 -7 -156 6 -300 14 -167 57 -437 73 -463 4 -5 7 -14 7
-20 1 -32 39 -164 46 -159 5 3 6 -1 3 -9 -13 -35 215 -635 237 -621 4 2 11 -1
15 -7 4 -8 3 -9 -4 -5 -16 10 -15 1 5 -37 9 -18 18 -36 18 -42 1 -5 7 -9 14
-7 7 1 10 -2 6 -7 -3 -6 2 -25 11 -43 l17 -32 23 52 c13 29 20 60 17 69 -4 9
-2 14 3 10 5 -3 18 18 28 46 37 105 166 343 196 362 6 4 8 16 5 28 -4 14 -3
17 2 10 6 -9 19 1 43 31 41 51 141 128 225 173 78 41 185 70 288 78 141 11
494 -52 771 -139 178 -56 197 -59 240 -47 20 5 36 6 36 1 0 -5 -46 -50 -103
-102 -220 -200 -362 -362 -504 -573 -318 -476 -481 -991 -460 -1450 24 -511
252 -949 687 -1319 417 -355 874 -544 1424 -588 l156 -12 60 -186 c61 -192
120 -395 120 -415 0 -7 -44 -20 -102 -32 -102 -20 -103 -20 -193 -1 -117 25
-321 34 -397 19 -127 -27 -250 -118 -312 -230 l-27 -51 35 -15 c49 -21 53 -20
75 23 26 51 91 117 140 142 87 44 224 62 334 43 l38 -6 -102 -49 c-172 -84
-253 -186 -234 -296 6 -39 69 -152 84 -152 4 0 19 13 34 28 l27 28 -31 61
c-29 56 -30 64 -19 97 24 74 136 146 321 206 111 37 118 37 231 16 50 -10 102
-14 122 -10 49 9 86 48 86 91 0 49 -49 236 -125 477 -36 114 -65 210 -63 212
5 4 269 26 273 22 14 -15 288 -885 297 -942 3 -18 -9 -22 -102 -41 -104 -20
-106 -20 -185 -2 -121 28 -354 34 -430 12 -126 -36 -218 -106 -279 -209 -33
-56 -33 -62 4 -81 41 -21 45 -20 73 28 38 65 95 116 166 150 55 26 79 31 167
35 56 2 119 1 140 -2 l37 -8 -99 -47 c-239 -116 -299 -256 -177 -419 l25 -34
33 32 33 32 -29 41 c-91 126 25 242 334 331 80 23 86 24 153 10 127 -27 220
-14 238 31 22 59 -32 267 -205 793 -56 167 -99 305 -97 306 1 2 37 8 78 15
358 61 812 230 1163 433 l67 39 -50 62 c-120 147 -209 376 -264 677 -37 205
-50 379 -49 670 2 575 83 1151 278 1977 78 328 103 474 114 671 29 529 -97
927 -398 1254 -146 159 -419 340 -651 432 l-44 18 219 72 c721 238 949 430
672 566 -80 39 -201 69 -302 76 -97 7 -200 -13 -293 -56 -35 -16 -65 -30 -67
-30 -1 0 10 47 25 104 49 181 63 320 57 544 -6 217 -21 305 -76 449 -80 206
-215 298 -345 233z m-1791 -1608 c-3 -3 -11 0 -18 7 -9 10 -8 11 6 5 10 -3 15
-9 12 -12z m85 -45 c0 -2 -8 -3 -18 -3 -10 0 -19 6 -19 13 0 8 6 9 19 2 10 -5
18 -11 18 -12z m-1641 -180 c-2 -1 -13 -9 -24 -17 -19 -14 -19 -14 -6 3 7 9
18 17 24 17 6 0 8 -1 6 -3z m-159 -127 c0 -5 -2 -10 -4 -10 -3 0 -8 5 -11 10
-3 6 -1 10 4 10 6 0 11 -4 11 -10z m231 -118 c15 -8 34 -27 43 -42 18 -31 22
-125 6 -135 -6 -4 -8 -16 -5 -28 2 -12 2 -16 -1 -9 -4 9 -15 5 -39 -15 -18
-16 -55 -41 -82 -58 -178 -110 -334 -342 -368 -547 -22 -134 -34 -181 -51
-199 -8 -9 -12 -19 -7 -21 4 -3 3 -3 -4 -2 -7 2 -25 -3 -40 -11 -36 -19 -86
-19 -122 0 -16 8 -32 11 -36 7 -5 -4 -5 -2 -2 5 4 6 0 18 -8 26 -49 50 -45
178 12 357 9 30 17 60 18 65 0 6 2 12 5 15 15 13 48 113 44 128 -5 13 -4 14 4
3 7 -10 13 -7 24 15 23 47 42 77 61 98 10 11 15 26 13 33 -3 7 -2 12 2 11 8
-3 225 213 226 224 1 3 5 10 10 15 5 5 6 3 2 -4 -8 -14 10 -18 18 -5 10 17
130 85 160 92 38 9 83 2 117 -18z m1666 -374 c-3 -8 -6 -5 -6 6 -1 11 2 17 5
13 3 -3 4 -12 1 -19z m1008 7 c101 -27 198 -103 275 -215 50 -74 72 -120 103
-215 47 -143 60 -244 54 -405 -6 -171 -35 -300 -96 -425 -73 -152 -161 -248
-277 -302 -52 -25 -71 -28 -154 -28 -91 1 -98 2 -168 39 -142 76 -261 251
-319 471 -24 92 -27 116 -27 290 0 175 2 198 27 289 68 254 214 442 385 497
71 22 121 23 197 4z m-2651 -1684 c3 -5 -2 -15 -12 -22 -15 -12 -16 -12 -5 2
7 9 10 19 6 22 -3 4 -4 7 0 7 3 0 8 -4 11 -9z m-101 -106 c-3 -9 -8 -14 -10
-11 -3 3 -2 9 2 15 9 16 15 13 8 -4z m-479 -221 c3 -8 2 -12 -4 -9 -6 3 -10
10 -10 16 0 14 7 11 14 -7z m83 -206 c-3 -8 -6 -5 -6 6 -1 11 2 17 5 13 3 -3
4 -12 1 -19z"/>
<path d="M3399 6862 c-64 -26 -131 -75 -167 -119 -137 -175 -160 -444 -56
-652 37 -75 123 -164 187 -194 208 -99 442 46 512 318 21 80 21 233 0 316 -23
93 -27 96 -63 60 -45 -45 -101 -44 -148 3 -29 29 -34 41 -34 79 0 50 27 92 69
108 26 10 26 11 6 26 -89 66 -219 90 -306 55z m21 -762 c45 -45 13 -130 -50
-130 -39 0 -80 39 -80 76 0 63 85 99 130 54z"/>
<path d="M7760 4406 c-502 -112 -1397 -919 -2157 -1946 -120 -163 -277 -390
-272 -394 10 -9 411 -26 614 -26 682 0 1221 89 1597 263 186 86 370 240 451
378 73 125 114 319 88 417 -25 92 -108 149 -231 159 l-69 6 63 71 c234 263
337 543 297 806 -34 222 -165 314 -381 266z"/>
</g>
</svg>
